inDegrees=no
num_controls=7
num_derivatives=13
num_iterations=139
num_multipliers=7
num_parameters=0
num_slacks=7
num_states=26
objective=0.470851
objective_accelerations=0.007692
objective_balance=0.005662
objective_effort=0.012959
objective_height=0.435820
objective_ligament=0.008717
solver_duration=2119.997583
status=Solve_Succeeded
success=true
DataType=double
version=3
OpenSimVersion=4.5
endheader
time	/jointset/ground_pelvis/pelvis_tilt/value	/jointset/ground_pelvis/pelvis_tx/value	/jointset/ground_pelvis/pelvis_ty/value	/jointset/hip_l/hip_flexion_l/value	/jointset/hip_l/hip_adduction_l/value	/jointset/hip_l/hip_rotation_l/value	/jointset/back/lumbar_extension/value	/jointset/patellofemoral_l/patellar_flexion_l/value	/jointset/knee_l/knee_flexion_l/value	/jointset/knee_l/knee_adduction_l/value	/jointset/knee_l/knee_rotation_l/value	/jointset/ankle_l/ankle_angle_l/value	/jointset/subtalar_l/subtalar_angle_l/value	/jointset/ground_pelvis/pelvis_tilt/speed	/jointset/ground_pelvis/pelvis_tx/speed	/jointset/ground_pelvis/pelvis_ty/speed	/jointset/hip_l/hip_flexion_l/speed	/jointset/hip_l/hip_adduction_l/speed	/jointset/hip_l/hip_rotation_l/speed	/jointset/back/lumbar_extension/speed	/jointset/patellofemoral_l/patellar_flexion_l/speed	/jointset/knee_l/knee_flexion_l/speed	/jointset/knee_l/knee_adduction_l/speed	/jointset/knee_l/knee_rotation_l/speed	/jointset/ankle_l/ankle_angle_l/speed	/jointset/subtalar_l/subtalar_angle_l/speed	/forceset/tau_hip_flexion_l	/forceset/tau_hip_adduction_l	/forceset/tau_hip_rotation_l	/forceset/tau_knee_flexion_l	/forceset/tau_ankle_angle_l	/forceset/tau_subtalar_angle_l	/forceset/tau_lumbar_extension	lambda_cid13_p0	lambda_cid13_p1	lambda_cid13_p2	lambda_cid13_p3	lambda_cid13_p4	lambda_cid13_p5	lambda_cid14_p0	/jointset/ground_pelvis/pelvis_tilt/accel	/jointset/ground_pelvis/pelvis_tx/accel	/jointset/ground_pelvis/pelvis_ty/accel	/jointset/hip_l/hip_flexion_l/accel	/jointset/hip_l/hip_adduction_l/accel	/jointset/hip_l/hip_rotation_l/accel	/jointset/back/lumbar_extension/accel	/jointset/patellofemoral_l/patellar_flexion_l/accel	/jointset/knee_l/knee_flexion_l/accel	/jointset/knee_l/knee_adduction_l/accel	/jointset/knee_l/knee_rotation_l/accel	/jointset/ankle_l/ankle_angle_l/accel	/jointset/subtalar_l/subtalar_angle_l/accel	gamma_cid13_p0	gamma_cid13_p1	gamma_cid13_p2	gamma_cid13_p3	gamma_cid13_p4	gamma_cid13_p5	gamma_cid14_p0
1	-0.2487224412599358	-0.001083061934303112	0.8678268279455035	0.6506635424009475	-0.2813567023178907	-0.2138312241009951	-0.4361132331802623	0.2075403658079407	0.2075403658077265	-0.1745136251020709	0.1744637514364631	-0.05034929432982993	-0.03407475476069702	-0.003688835800084063	-0.003606841234464935	-0.001918178818072554	0.01423303598381674	-0.001051586777720691	0.003160028462853699	-0.02666455794023367	0.009442044321102648	0.009442044321096838	-1.284657318631252e-05	-4.722928051040336e-05	-0.000999879600094635	-0.001319988705147849	-0.1936811887904797	0.02340214086637602	-0.009409739545502543	-0.06809191144148381	0.06503366194753514	0.04256470926757257	0.2101766930446842	-20.11065091096738	-20.37406698260205	9.024649391825404	4.285862913971787	-646.113211508553	-72.69223881651513	-41.88209441849801	0.3232868599686248	0.2454677432125409	0.1431076813786917	-1.083402587522485	0.07566357675106936	-0.2290681716273731	1.576531818106769	-0.7057704207565766	-0.7057704207565916	-0.004677973426769587	-0.00446428532544963	0.04488521728803135	0.08921267417287128	2.409064781190649e-10	-5.148268795743295e-11	-4.482514457606194e-10	-2.691656741242491e-10	9.126561566348475e-10	-5.018390855754723e-11	7.623894161573755e-11
1.01	-0.248743377894692	-0.001106893136502352	0.867814754118331	0.6507521925831672	-0.2813633620191403	-0.2138111481062383	-0.4363009369550511	0.2075998545353737	0.2075998545352162	-0.1745137560663689	0.1744632166288706	-0.05035693192116736	-0.03408339909948775	-0.000495952110524016	-0.001160161216848745	-0.0004964495926785422	0.003496059869791427	-0.0002795109204113059	0.0008537182085629912	-0.01088525053244584	0.002457047515452768	0.002457047515450637	-1.124694954806082e-05	-5.817028166482254e-05	-0.0005276754344958421	-0.0004080665291988832	-0.1936583716892255	0.02337421409472165	-0.009415077786053832	-0.0681324806528419	0.06508291127205293	0.04257156933035975	0.2101586717615554	-20.09117562621651	-20.3794714717389	9.024386117635546	4.277435050254502	-646.0546744012908	-72.70123188128726	-41.88230898971089	0.3176699822603245	0.2441538039896953	0.1417261564370573	-1.068986202130922	0.07810598508397519	-0.2316302654453525	1.57727217503811	-0.6946623658828085	-0.6946623658822839	0.002893808502626424	0.0008253183518297071	0.04838251079359175	0.09230389752159895	1.190887224189977e-10	-6.013776944601458e-11	-1.928975451841578e-10	-1.278071721125266e-10	3.049388856803386e-10	-3.704549174733561e-11	3.978885690527515e-11
1.02	-0.2487323095207896	-0.001106280403934929	0.8678169017060762	0.6507334447884846	-0.2813622756828455	-0.2138141787766483	-0.4363311192611865	0.2075895336836695	0.2075895336835671	-0.1745138080587805	0.174462619276437	-0.0503598485719292	-0.03408289983487588	0.002712165931463413	0.00128194571886784	0.000926104165456035	-0.007246559395773534	0.0004976207314234411	-0.001461304570343757	0.004839735792283368	-0.004519871506738995	-0.004519871506737541	2.94780382977105e-06	-5.973824832812648e-05	-5.569148498390798e-05	0.0005087319753776659	-0.1936355545880047	0.02334628732306016	-0.00942041602662121	-0.06817304986420147	0.06513216059657109	0.04257842939314031	0.2101406504783978	-20.07639890588109	-20.38459732421444	9.0246998471235	4.271581402111242	-646.0727244305818	-72.71636634151643	-41.88225075860275	0.3263337304541241	0.2445531268326014	0.1432725879268036	-1.084531217830413	0.07667473565614502	-0.2308106765505813	1.565667601495055	-0.7041548640649503	-0.7041548640649841	-0.002158947478845994	-0.0025896784272279	0.04484117407063858	0.09018793989838651	-7.617579530977461e-11	-2.48694099523765e-11	2.313728154057829e-10	6.545922899253122e-11	-3.341325838203934e-10	-1.970508771696696e-11	-3.697375951914586e-11
1.03	-0.2486891584177887	-0.001081257622752247	0.8678332695072268	0.6506073069610545	-0.2813534137121926	-0.2138403757254886	-0.4362041611060299	0.2075094844108938	0.2075094844107497	-0.1745136999158937	0.1744620328319201	-0.05035804169697609	-0.0340732276918754	0.00591304544824715	0.003723025961247152	0.002346635238785456	-0.01797535355866779	0.001273536065531467	-0.00377672686130093	0.02055915530574436	-0.01148851889442492	-0.01148851889442659	1.634745801697981e-05	-5.80514319198429e-05	0.0004175390137913268	0.001424582216683394	-0.1935482488408463	0.02332353651281218	-0.00942597801901582	-0.06818824401486703	0.06515375404248615	0.04255930925950413	0.2100677835611017	-20.06666014548928	-20.37894066843825	9.024874054983984	4.264892226832224	-646.0194717551431	-72.7149991744368	-41.88192196756054	0.3162136694591592	0.2439478424445317	0.1413200445676194	-1.066205667103449	0.07786430128167747	-0.2317043682110249	1.576168136246966	-0.6930000297711089	-0.6930000297715957	0.002739477329865205	0.001472622247723016	0.04863485510933874	0.09211632881625911	-2.721897697939423e-10	1.084714791863142e-11	6.57366813342801e-10	2.592553025373173e-10	-9.735239941226173e-10	-2.32180626598445e-12	-1.141477283079952e-10
1.04	-0.2486141487981851	-0.001031811565245195	0.8678638179546173	0.6503740507616735	-0.2813368297144014	-0.2138896861698074	-0.4359197909537407	0.2073597925935148	0.2073597925933246	-0.1745135277653735	0.174461448207677	-0.05035148834356944	-0.03405443049394796	0.009083869251778268	0.006166600983741897	0.003762233413428651	-0.0286702337849486	0.002042026159382176	-0.006084003665966058	0.03632213521822758	-0.01844838042813578	-0.01844838042814057	1.5749330698251e-05	-5.937419259623288e-05	0.0008936042057031397	0.00233374296077288	-0.1934609430937263	0.0233007857025583	-0.009431540011442708	-0.06820343816553116	0.06517534748840284	0.04254018912586288	0.2099949166437711	-20.06160916899371	-20.37300799726984	9.02562652239744	4.260750527404494	-646.0426386286181	-72.71976058798545	-41.88132043392589	0.3203225878036278	0.2450520828556668	0.1422860081895571	-1.077748430507723	0.07518968760468493	-0.2291815792921733	1.574379681299506	-0.7023976932699324	-0.702397693269965	-0.004958503780025513	-0.003191593844162998	0.04540811269793002	0.08885004045513609	-4.038729888593348e-10	3.576010204969769e-11	9.330369867623943e-10	4.022193290189838e-10	-1.572628663981982e-09	2.966071114571411e-11	-1.539700241943111e-10
1.05	-0.2485074988696492	-0.0009579207043884362	0.8679085043497889	0.650033941411277	-0.281312580215541	-0.213962035893336	-0.4354777175727415	0.2071405569443094	0.2071405569441837	-0.1745133954785172	0.1744608413434736	-0.05034014952732493	-0.03402655562480005	0.01224926074130143	0.008611638915556129	0.005174872102746559	-0.03935318695758725	0.002808467199141756	-0.008385346759311333	0.0520854713851607	-0.02539605077007503	-0.02539605077008127	1.213826923300415e-05	-6.182523061995618e-05	0.001375765710868866	0.003242138978647168	-0.1932132821278022	0.02327262861066664	-0.00944850792081992	-0.06826187016770259	0.0652307023515188	0.04246055407157923	0.2097679090206561	-20.04067582946269	-20.34556086784587	9.025217820376371	4.260687432632735	-645.9435964873651	-72.69463172672654	-41.88044227258951	0.3151190589777628	0.2442399176180853	0.1407263314391405	-1.063801421039682	0.07746030518155335	-0.2305217389623112	1.576250144948633	-0.6905468693712759	-0.6905468693715077	0.002152223659194809	0.001253930148270492	0.04986114447959764	0.0919704550134415	-5.33545871817891e-10	6.033544356389085e-11	1.204009540665819e-09	5.435948540299281e-10	-2.170474373202508e-09	6.209945468118496e-11	-1.926250803024229e-10
1.06	-0.2483691007003271	-0.0008595774103589813	0.8679673118382814	0.6495869559970744	-0.2812806485076799	-0.2140573812607198	-0.4348782229179604	0.2068519255587465	0.2068519255586797	-0.1745132563760824	0.1744602151266687	-0.05032394090101783	-0.03398956958096142	0.01543351740887012	0.01105708761828109	0.006586452077569167	-0.05004544654614026	0.003578467959699928	-0.01068313243691909	0.06780638997443901	-0.03232752770062564	-0.03232752770063328	1.711244732612994e-05	-6.324471145294994e-05	0.001867566218184196	0.004155977898916052	-0.1929656211618762	0.02324447151877091	-0.00946547583023709	-0.06832030216985986	0.06528605721463823	0.0423809190172927	0.2095409013975403	-20.02441501360877	-20.31783944477379	9.025386567122933	4.263072656940525	-645.9207772897568	-72.67563306929731	-41.87928138515957	0.3240956234127647	0.245134237037788	0.1420742652904952	-1.079609713690592	0.07590163176440694	-0.228470096144672	1.565896165768559	-0.6991590109921987	-0.6991590109922201	-0.003241455868342088	-0.002985282406016595	0.04733591312782399	0.08993862093405289	-6.880231236296851e-10	8.595424238884166e-11	1.541752204586764e-09	6.990169936686299e-10	-2.714623365728319e-09	8.557143044925146e-11	-2.488253349147479e-10
